<svg xmlns="http://www.w3.org/2000/svg" viewBox="0 0 2400 240"
     width="100%" height="100%" preserveAspectRatio="none"
     role="img" aria-label="Nanopore signal squiggle">
  <path d="M 0.0 49.2 L 2.4 52.4 L 4.8 53.6 L 7.2 50.6 L 9.6 48.9 L 12.0 51.5 L 14.4 52.6 L 16.8 53.8 L 19.2 49.2 L 21.6 49.0 L 24.0 53.0 L 26.4 52.5 L 28.8 54.7 L 31.2 53.6 L 33.6 51.4 L 36.0 51.1 L 38.4 56.7 L 40.8 51.0 L 43.2 50.0 L 45.6 49.3 L 48.0 51.8 L 50.4 51.9 L 52.8 50.9 L 55.2 51.5 L 57.6 52.1 L 60.0 53.0 L 62.4 53.8 L 64.8 52.0 L 67.2 48.0 L 69.6 53.0 L 72.0 48.8 L 74.4 51.3 L 76.8 48.7 L 79.2 51.6 L 81.6 50.0 L 84.0 52.0 L 86.4 58.2 L 88.8 51.5 L 91.2 53.3 L 93.6 49.0 L 96.0 51.0 L 98.4 52.9 L 100.8 51.4 L 103.2 52.3 L 105.6 51.8 L 108.0 49.6 L 110.4 52.7 L 112.8 50.0 L 115.2 55.3 L 117.6 50.6 L 120.0 53.0 L 122.4 51.6 L 124.8 53.5 L 127.2 50.4 L 129.6 53.6 L 132.0 51.4 L 134.4 54.1 L 136.8 52.8 L 139.2 51.9 L 141.6 50.0 L 144.0 53.1 L 146.4 52.5 L 148.8 54.9 L 151.2 154.8 L 153.6 157.8 L 156.0 157.6 L 158.4 156.9 L 160.8 156.7 L 163.2 156.6 L 165.6 154.1 L 168.0 152.8 L 170.4 154.7 L 172.8 157.9 L 175.2 160.8 L 177.6 159.1 L 180.0 159.4 L 182.4 158.5 L 184.8 158.2 L 187.2 156.6 L 189.6 158.5 L 192.0 161.7 L 194.4 155.0 L 196.8 153.8 L 199.2 104.3 L 201.6 99.1 L 204.0 101.3 L 206.4 101.0 L 208.8 95.0 L 211.2 105.7 L 213.6 103.7 L 216.0 98.9 L 218.4 100.7 L 220.8 98.8 L 223.2 95.7 L 225.6 98.1 L 228.0 99.5 L 230.4 165.5 L 232.8 165.9 L 235.2 161.8 L 237.6 168.9 L 240.0 164.3 L 242.4 167.5 L 244.8 168.2 L 247.2 166.2 L 249.6 170.0 L 252.0 171.2 L 254.4 167.9 L 256.8 165.7 L 259.2 168.6 L 261.6 74.6 L 264.0 72.8 L 266.4 66.0 L 268.8 67.8 L 271.2 70.0 L 273.6 78.0 L 276.0 71.4 L 278.4 69.7 L 280.8 152.5 L 283.2 147.5 L 285.6 149.7 L 288.0 147.8 L 290.4 146.9 L 292.8 148.5 L 295.2 151.6 L 297.6 150.4 L 300.0 144.8 L 302.4 146.8 L 304.8 154.3 L 307.2 148.1 L 309.6 148.5 L 312.0 147.6 L 314.4 151.1 L 316.8 149.7 L 319.2 148.7 L 321.6 132.3 L 324.0 138.4 L 326.4 138.1 L 328.8 134.8 L 331.2 134.1 L 333.6 132.6 L 336.0 135.5 L 338.4 135.5 L 340.8 139.6 L 343.2 135.6 L 345.6 133.5 L 348.0 130.1 L 350.4 138.0 L 352.8 122.5 L 355.2 123.0 L 357.6 122.0 L 360.0 118.3 L 362.4 120.9 L 364.8 125.2 L 367.2 119.8 L 369.6 120.8 L 372.0 118.0 L 374.4 123.9 L 376.8 120.9 L 379.2 120.0 L 381.6 117.4 L 384.0 123.7 L 386.4 120.3 L 388.8 123.2 L 391.2 106.8 L 393.6 108.7 L 396.0 109.9 L 398.4 114.7 L 400.8 113.3 L 403.2 116.7 L 405.6 111.4 L 408.0 111.3 L 410.4 109.2 L 412.8 111.3 L 415.2 108.3 L 417.6 107.2 L 420.0 113.3 L 422.4 115.2 L 424.8 176.4 L 427.2 174.7 L 429.6 178.3 L 432.0 170.5 L 434.4 174.2 L 436.8 176.0 L 439.2 173.2 L 441.6 176.4 L 444.0 174.3 L 446.4 173.4 L 448.8 172.6 L 451.2 177.0 L 453.6 179.2 L 456.0 172.6 L 458.4 72.1 L 460.8 75.9 L 463.2 77.9 L 465.6 77.2 L 468.0 68.6 L 470.4 77.0 L 472.8 72.9 L 475.2 72.6 L 477.6 73.6 L 480.0 77.2 L 482.4 83.9 L 484.8 83.5 L 487.2 80.4 L 489.6 82.8 L 492.0 84.1 L 494.4 80.8 L 496.8 83.3 L 499.2 77.5 L 501.6 83.4 L 504.0 78.5 L 506.4 81.3 L 508.8 85.8 L 511.2 73.8 L 513.6 80.0 L 516.0 81.5 L 518.4 87.3 L 520.8 82.4 L 523.2 171.0 L 525.6 177.5 L 528.0 174.3 L 530.4 173.0 L 532.8 172.2 L 535.2 173.0 L 537.6 173.8 L 540.0 171.0 L 542.4 173.4 L 544.8 173.5 L 547.2 170.7 L 549.6 170.6 L 552.0 170.0 L 554.4 169.8 L 556.8 175.3 L 559.2 92.5 L 561.6 98.9 L 564.0 99.1 L 566.4 94.6 L 568.8 99.5 L 571.2 99.7 L 573.6 100.7 L 576.0 96.4 L 578.4 121.7 L 580.8 113.3 L 583.2 121.1 L 585.6 118.8 L 588.0 116.9 L 590.4 122.3 L 592.8 115.6 L 595.2 120.0 L 597.6 120.2 L 600.0 112.8 L 602.4 112.7 L 604.8 114.7 L 607.2 120.5 L 609.6 121.7 L 612.0 65.2 L 614.4 70.2 L 616.8 73.4 L 619.2 70.6 L 621.6 64.9 L 624.0 68.4 L 626.4 66.8 L 628.8 75.6 L 631.2 63.9 L 633.6 72.5 L 636.0 68.3 L 638.4 69.5 L 640.8 70.7 L 643.2 75.0 L 645.6 74.1 L 648.0 68.8 L 650.4 71.5 L 652.8 72.2 L 655.2 72.8 L 657.6 73.1 L 660.0 71.9 L 662.4 73.2 L 664.8 71.3 L 667.2 70.6 L 669.6 76.4 L 672.0 73.6 L 674.4 73.8 L 676.8 68.9 L 679.2 72.4 L 681.6 74.8 L 684.0 64.1 L 686.4 70.8 L 688.8 69.9 L 691.2 65.8 L 693.6 68.2 L 696.0 68.0 L 698.4 63.7 L 700.8 62.0 L 703.2 67.7 L 705.6 65.8 L 708.0 67.5 L 710.4 63.7 L 712.8 78.2 L 715.2 77.8 L 717.6 73.1 L 720.0 71.9 L 722.4 72.9 L 724.8 70.0 L 727.2 73.0 L 729.6 73.2 L 732.0 65.6 L 734.4 66.9 L 736.8 62.8 L 739.2 62.1 L 741.6 66.1 L 744.0 68.8 L 746.4 67.2 L 748.8 60.5 L 751.2 69.2 L 753.6 67.7 L 756.0 65.0 L 758.4 64.6 L 760.8 127.9 L 763.2 124.7 L 765.6 128.1 L 768.0 129.3 L 770.4 132.1 L 772.8 129.2 L 775.2 126.8 L 777.6 127.8 L 780.0 126.9 L 782.4 128.5 L 784.8 129.9 L 787.2 126.5 L 789.6 124.9 L 792.0 124.7 L 794.4 131.4 L 796.8 132.0 L 799.2 131.0 L 801.6 164.3 L 804.0 166.1 L 806.4 161.4 L 808.8 164.3 L 811.2 161.1 L 813.6 164.9 L 816.0 164.3 L 818.4 164.7 L 820.8 161.3 L 823.2 161.1 L 825.6 159.1 L 828.0 162.6 L 830.4 106.9 L 832.8 103.1 L 835.2 108.7 L 837.6 106.0 L 840.0 105.1 L 842.4 111.7 L 844.8 108.7 L 847.2 114.9 L 849.6 108.0 L 852.0 106.4 L 854.4 107.4 L 856.8 110.7 L 859.2 107.1 L 861.6 108.1 L 864.0 108.3 L 866.4 105.1 L 868.8 107.4 L 871.2 106.0 L 873.6 132.0 L 876.0 133.8 L 878.4 135.3 L 880.8 128.7 L 883.2 132.8 L 885.6 132.6 L 888.0 131.3 L 890.4 129.0 L 892.8 130.7 L 895.2 130.1 L 897.6 132.0 L 900.0 131.6 L 902.4 133.5 L 904.8 131.7 L 907.2 128.8 L 909.6 160.5 L 912.0 164.3 L 914.4 155.2 L 916.8 161.6 L 919.2 160.3 L 921.6 165.6 L 924.0 162.7 L 926.4 121.6 L 928.8 125.0 L 931.2 121.4 L 933.6 125.7 L 936.0 128.1 L 938.4 124.7 L 940.8 125.2 L 943.2 123.1 L 945.6 120.6 L 948.0 125.5 L 950.4 123.1 L 952.8 125.3 L 955.2 125.8 L 957.6 126.8 L 960.0 129.4 L 962.4 124.9 L 964.8 82.9 L 967.2 82.8 L 969.6 82.0 L 972.0 82.9 L 974.4 91.3 L 976.8 84.6 L 979.2 84.9 L 981.6 92.6 L 984.0 85.0 L 986.4 79.4 L 988.8 86.6 L 991.2 82.1 L 993.6 90.7 L 996.0 81.1 L 998.4 83.3 L 1000.8 84.5 L 1003.2 92.0 L 1005.6 90.7 L 1008.0 89.0 L 1010.4 89.5 L 1012.8 86.7 L 1015.2 92.9 L 1017.6 87.8 L 1020.0 87.9 L 1022.4 93.8 L 1024.8 87.9 L 1027.2 135.9 L 1029.6 138.1 L 1032.0 142.7 L 1034.4 138.7 L 1036.8 137.2 L 1039.2 134.1 L 1041.6 139.3 L 1044.0 138.6 L 1046.4 135.2 L 1048.8 135.6 L 1051.2 138.6 L 1053.6 141.5 L 1056.0 140.5 L 1058.4 139.3 L 1060.8 137.8 L 1063.2 149.6 L 1065.6 141.4 L 1068.0 148.3 L 1070.4 140.4 L 1072.8 144.9 L 1075.2 145.4 L 1077.6 144.8 L 1080.0 152.0 L 1082.4 150.4 L 1084.8 148.7 L 1087.2 147.9 L 1089.6 150.2 L 1092.0 148.0 L 1094.4 147.0 L 1096.8 149.0 L 1099.2 144.9 L 1101.6 148.8 L 1104.0 155.0 L 1106.4 131.6 L 1108.8 127.6 L 1111.2 130.9 L 1113.6 127.1 L 1116.0 126.1 L 1118.4 128.2 L 1120.8 133.6 L 1123.2 129.0 L 1125.6 129.6 L 1128.0 129.2 L 1130.4 130.0 L 1132.8 131.8 L 1135.2 133.1 L 1137.6 141.6 L 1140.0 135.6 L 1142.4 133.8 L 1144.8 132.3 L 1147.2 135.4 L 1149.6 130.8 L 1152.0 124.3 L 1154.4 133.9 L 1156.8 132.8 L 1159.2 136.5 L 1161.6 137.3 L 1164.0 130.7 L 1166.4 124.1 L 1168.8 134.4 L 1171.2 134.4 L 1173.6 128.8 L 1176.0 136.0 L 1178.4 135.6 L 1180.8 124.1 L 1183.2 124.9 L 1185.6 122.5 L 1188.0 126.1 L 1190.4 123.7 L 1192.8 125.5 L 1195.2 123.4 L 1197.6 124.1 L 1200.0 93.6 L 1202.4 86.3 L 1204.8 88.1 L 1207.2 89.7 L 1209.6 92.9 L 1212.0 84.0 L 1214.4 85.6 L 1216.8 85.6 L 1219.2 87.2 L 1221.6 93.4 L 1224.0 83.6 L 1226.4 86.1 L 1228.8 83.9 L 1231.2 151.3 L 1233.6 162.1 L 1236.0 152.0 L 1238.4 157.0 L 1240.8 156.0 L 1243.2 155.2 L 1245.6 159.5 L 1248.0 154.5 L 1250.4 114.6 L 1252.8 114.1 L 1255.2 113.0 L 1257.6 113.9 L 1260.0 113.8 L 1262.4 113.9 L 1264.8 138.3 L 1267.2 139.5 L 1269.6 138.8 L 1272.0 139.7 L 1274.4 133.7 L 1276.8 138.3 L 1279.2 135.7 L 1281.6 135.7 L 1284.0 139.2 L 1286.4 139.2 L 1288.8 135.1 L 1291.2 132.3 L 1293.6 129.8 L 1296.0 136.1 L 1298.4 141.7 L 1300.8 137.8 L 1303.2 123.9 L 1305.6 128.9 L 1308.0 127.8 L 1310.4 130.5 L 1312.8 129.6 L 1315.2 125.3 L 1317.6 128.6 L 1320.0 127.3 L 1322.4 131.6 L 1324.8 129.5 L 1327.2 102.1 L 1329.6 100.8 L 1332.0 97.8 L 1334.4 101.1 L 1336.8 102.6 L 1339.2 99.0 L 1341.6 139.2 L 1344.0 129.1 L 1346.4 132.5 L 1348.8 141.7 L 1351.2 132.9 L 1353.6 130.3 L 1356.0 144.2 L 1358.4 147.4 L 1360.8 140.4 L 1363.2 142.5 L 1365.6 144.9 L 1368.0 140.9 L 1370.4 144.3 L 1372.8 140.5 L 1375.2 144.0 L 1377.6 149.2 L 1380.0 153.6 L 1382.4 153.3 L 1384.8 154.4 L 1387.2 155.5 L 1389.6 148.5 L 1392.0 155.0 L 1394.4 155.8 L 1396.8 151.1 L 1399.2 154.7 L 1401.6 147.5 L 1404.0 151.7 L 1406.4 151.7 L 1408.8 165.5 L 1411.2 171.4 L 1413.6 170.9 L 1416.0 169.7 L 1418.4 163.4 L 1420.8 174.2 L 1423.2 172.5 L 1425.6 173.5 L 1428.0 174.4 L 1430.4 168.8 L 1432.8 168.3 L 1435.2 171.2 L 1437.6 175.6 L 1440.0 114.1 L 1442.4 123.1 L 1444.8 116.1 L 1447.2 114.9 L 1449.6 113.6 L 1452.0 116.6 L 1454.4 116.1 L 1456.8 112.1 L 1459.2 113.5 L 1461.6 120.0 L 1464.0 115.1 L 1466.4 113.3 L 1468.8 119.2 L 1471.2 113.1 L 1473.6 122.3 L 1476.0 113.5 L 1478.4 104.9 L 1480.8 100.8 L 1483.2 102.3 L 1485.6 104.7 L 1488.0 103.3 L 1490.4 94.4 L 1492.8 102.5 L 1495.2 105.2 L 1497.6 104.8 L 1500.0 106.9 L 1502.4 101.7 L 1504.8 111.7 L 1507.2 106.3 L 1509.6 165.4 L 1512.0 164.9 L 1514.4 165.4 L 1516.8 160.3 L 1519.2 165.5 L 1521.6 165.1 L 1524.0 163.9 L 1526.4 166.0 L 1528.8 165.7 L 1531.2 164.9 L 1533.6 166.7 L 1536.0 163.5 L 1538.4 160.2 L 1540.8 164.7 L 1543.2 147.2 L 1545.6 143.7 L 1548.0 148.9 L 1550.4 146.7 L 1552.8 141.9 L 1555.2 144.8 L 1557.6 151.8 L 1560.0 75.4 L 1562.4 71.4 L 1564.8 72.4 L 1567.2 73.2 L 1569.6 77.0 L 1572.0 70.7 L 1574.4 69.7 L 1576.8 74.5 L 1579.2 70.1 L 1581.6 72.1 L 1584.0 66.0 L 1586.4 63.7 L 1588.8 60.8 L 1591.2 66.4 L 1593.6 62.8 L 1596.0 60.6 L 1598.4 64.2 L 1600.8 64.6 L 1603.2 62.8 L 1605.6 65.1 L 1608.0 65.4 L 1610.4 61.6 L 1612.8 58.9 L 1615.2 58.2 L 1617.6 63.2 L 1620.0 162.5 L 1622.4 161.8 L 1624.8 157.1 L 1627.2 160.6 L 1629.6 159.6 L 1632.0 159.9 L 1634.4 163.1 L 1636.8 161.9 L 1639.2 161.4 L 1641.6 155.8 L 1644.0 161.1 L 1646.4 157.2 L 1648.8 158.4 L 1651.2 159.2 L 1653.6 163.2 L 1656.0 156.8 L 1658.4 169.5 L 1660.8 164.6 L 1663.2 166.4 L 1665.6 169.4 L 1668.0 170.6 L 1670.4 166.4 L 1672.8 168.9 L 1675.2 168.8 L 1677.6 168.0 L 1680.0 163.7 L 1682.4 167.8 L 1684.8 165.0 L 1687.2 169.7 L 1689.6 168.8 L 1692.0 168.5 L 1694.4 161.6 L 1696.8 168.5 L 1699.2 80.0 L 1701.6 84.0 L 1704.0 82.2 L 1706.4 84.4 L 1708.8 81.8 L 1711.2 82.1 L 1713.6 85.3 L 1716.0 81.8 L 1718.4 82.7 L 1720.8 84.4 L 1723.2 81.6 L 1725.6 83.7 L 1728.0 80.5 L 1730.4 81.6 L 1732.8 138.7 L 1735.2 140.7 L 1737.6 138.4 L 1740.0 136.1 L 1742.4 142.4 L 1744.8 137.4 L 1747.2 138.3 L 1749.6 136.1 L 1752.0 139.3 L 1754.4 137.6 L 1756.8 139.6 L 1759.2 100.3 L 1761.6 96.2 L 1764.0 101.9 L 1766.4 98.8 L 1768.8 99.0 L 1771.2 99.7 L 1773.6 100.8 L 1776.0 101.1 L 1778.4 101.1 L 1780.8 103.8 L 1783.2 101.6 L 1785.6 97.2 L 1788.0 100.7 L 1790.4 97.3 L 1792.8 96.6 L 1795.2 82.6 L 1797.6 83.2 L 1800.0 80.0 L 1802.4 85.2 L 1804.8 87.2 L 1807.2 82.5 L 1809.6 81.3 L 1812.0 80.2 L 1814.4 85.1 L 1816.8 83.3 L 1819.2 136.5 L 1821.6 139.8 L 1824.0 139.1 L 1826.4 134.6 L 1828.8 137.3 L 1831.2 137.4 L 1833.6 138.6 L 1836.0 133.9 L 1838.4 136.4 L 1840.8 137.6 L 1843.2 137.1 L 1845.6 138.2 L 1848.0 136.8 L 1850.4 132.5 L 1852.8 120.7 L 1855.2 125.7 L 1857.6 116.6 L 1860.0 116.6 L 1862.4 120.3 L 1864.8 119.4 L 1867.2 113.6 L 1869.6 115.8 L 1872.0 114.5 L 1874.4 124.8 L 1876.8 115.8 L 1879.2 121.0 L 1881.6 124.5 L 1884.0 124.4 L 1886.4 122.9 L 1888.8 119.6 L 1891.2 114.4 L 1893.6 121.1 L 1896.0 120.2 L 1898.4 114.7 L 1900.8 113.8 L 1903.2 114.1 L 1905.6 116.0 L 1908.0 112.9 L 1910.4 116.7 L 1912.8 113.7 L 1915.2 110.3 L 1917.6 112.6 L 1920.0 157.4 L 1922.4 156.5 L 1924.8 160.8 L 1927.2 155.8 L 1929.6 155.3 L 1932.0 154.8 L 1934.4 154.7 L 1936.8 153.4 L 1939.2 154.3 L 1941.6 158.0 L 1944.0 156.3 L 1946.4 155.9 L 1948.8 156.9 L 1951.2 164.1 L 1953.6 162.7 L 1956.0 164.2 L 1958.4 160.8 L 1960.8 164.8 L 1963.2 159.1 L 1965.6 164.6 L 1968.0 165.2 L 1970.4 162.1 L 1972.8 165.5 L 1975.2 113.5 L 1977.6 105.7 L 1980.0 105.7 L 1982.4 108.7 L 1984.8 104.2 L 1987.2 100.3 L 1989.6 109.2 L 1992.0 111.1 L 1994.4 104.2 L 1996.8 106.2 L 1999.2 109.9 L 2001.6 103.4 L 2004.0 114.8 L 2006.4 118.9 L 2008.8 115.7 L 2011.2 120.9 L 2013.6 118.4 L 2016.0 120.4 L 2018.4 114.6 L 2020.8 113.5 L 2023.2 114.5 L 2025.6 115.8 L 2028.0 120.3 L 2030.4 118.2 L 2032.8 117.6 L 2035.2 129.8 L 2037.6 127.4 L 2040.0 124.3 L 2042.4 125.8 L 2044.8 125.2 L 2047.2 128.5 L 2049.6 126.2 L 2052.0 127.1 L 2054.4 131.7 L 2056.8 122.6 L 2059.2 123.6 L 2061.6 121.8 L 2064.0 129.0 L 2066.4 126.2 L 2068.8 129.9 L 2071.2 128.5 L 2073.6 129.4 L 2076.0 128.0 L 2078.4 123.8 L 2080.8 127.8 L 2083.2 130.7 L 2085.6 129.1 L 2088.0 128.5 L 2090.4 130.9 L 2092.8 133.4 L 2095.2 130.8 L 2097.6 129.9 L 2100.0 127.0 L 2102.4 127.2 L 2104.8 175.9 L 2107.2 170.9 L 2109.6 176.1 L 2112.0 180.9 L 2114.4 168.5 L 2116.8 127.5 L 2119.2 120.8 L 2121.6 124.6 L 2124.0 127.3 L 2126.4 121.5 L 2128.8 125.2 L 2131.2 125.4 L 2133.6 127.4 L 2136.0 65.1 L 2138.4 68.6 L 2140.8 64.3 L 2143.2 63.4 L 2145.6 62.5 L 2148.0 60.4 L 2150.4 67.7 L 2152.8 59.5 L 2155.2 98.5 L 2157.6 94.2 L 2160.0 97.4 L 2162.4 96.5 L 2164.8 93.8 L 2167.2 99.9 L 2169.6 96.1 L 2172.0 152.4 L 2174.4 147.2 L 2176.8 153.9 L 2179.2 153.7 L 2181.6 147.6 L 2184.0 150.8 L 2186.4 153.2 L 2188.8 154.8 L 2191.2 148.4 L 2193.6 149.7 L 2196.0 155.0 L 2198.4 158.2 L 2200.8 155.4 L 2203.2 146.8 L 2205.6 151.9 L 2208.0 116.0 L 2210.4 118.6 L 2212.8 116.9 L 2215.2 115.3 L 2217.6 115.4 L 2220.0 153.8 L 2222.4 151.6 L 2224.8 154.7 L 2227.2 150.0 L 2229.6 149.2 L 2232.0 144.8 L 2234.4 150.4 L 2236.8 144.5 L 2239.2 153.5 L 2241.6 118.4 L 2244.0 117.9 L 2246.4 117.3 L 2248.8 115.9 L 2251.2 116.7 L 2253.6 119.7 L 2256.0 122.4 L 2258.4 115.0 L 2260.8 117.9 L 2263.2 116.4 L 2265.6 116.4 L 2268.0 116.7 L 2270.4 114.2 L 2272.8 119.0 L 2275.2 118.5 L 2277.6 114.0 L 2280.0 117.9 L 2282.4 120.1 L 2284.8 118.1 L 2287.2 120.4 L 2289.6 117.1 L 2292.0 117.6 L 2294.4 114.9 L 2296.8 115.7 L 2299.2 113.8 L 2301.6 115.7 L 2304.0 154.9 L 2306.4 156.9 L 2308.8 155.5 L 2311.2 157.4 L 2313.6 157.1 L 2316.0 156.2 L 2318.4 158.8 L 2320.8 113.4 L 2323.2 116.2 L 2325.6 116.5 L 2328.0 116.9 L 2330.4 115.5 L 2332.8 113.0 L 2335.2 113.1 L 2337.6 114.7 L 2340.0 118.0 L 2342.4 118.5 L 2344.8 117.2 L 2347.2 115.8 L 2349.6 116.5 L 2352.0 116.9 L 2354.4 117.9 L 2356.8 116.9 L 2359.2 111.6 L 2361.6 171.9 L 2364.0 176.9 L 2366.4 173.3 L 2368.8 171.3 L 2371.2 171.1 L 2373.6 163.4 L 2376.0 172.2 L 2378.4 172.7 L 2380.8 170.5 L 2383.2 169.9 L 2385.6 170.9 L 2388.0 166.2 L 2390.4 160.5 L 2392.8 161.7 L 2395.2 168.9 L 2397.6 163.0 L 2400.0 161.6 L 2402.4 157.5 L 2404.8 161.5 L 2407.2 163.1 L 2409.6 159.6 L 2412.0 160.7" fill="none" stroke="#808080" stroke-width="1.8"
        stroke-opacity="0.35" vector-effect="non-scaling-stroke"
        stroke-linejoin="round" stroke-linecap="round"/>
</svg>
